<svg width="303px" height="476px"
 viewBox="0.00 0.00 302.73 476.00" xmlns="http://www.w3.org/2000/svg" xmlns:xlink="http://www.w3.org/1999/xlink">
<g id="graph0" class="graph" transform="scale(1.0 1.0) rotate(0.0) translate(4.0 472.0)">
<polygon fill="white" stroke="transparent" points="-4,4 -4,-472 298.73,-472 298.73,4 -4,4"/>
<!-- 0 -->
<g id="node1" class="node">
<title>0</title>
<ellipse fill="none" stroke="black" cx="267.73" cy="-450" rx="27" ry="18"/>
<text text-anchor="middle" x="267.73" y="-445.8" font-family="Times,serif" font-size="14.00">0</text>
</g>
<!-- 1 -->
<g id="node2" class="node">
<title>1</title>
<ellipse fill="none" stroke="black" cx="267.73" cy="-378" rx="27" ry="18"/>
<text text-anchor="middle" x="267.73" y="-373.8" font-family="Times,serif" font-size="14.00">1</text>
</g>
<!-- 0&#45;&gt;1 -->
<g id="edge1" class="edge">
<title>0&#45;&gt;1</title>
<path fill="none" stroke="black" d="M267.73,-431.7C267.73,-423.98 267.73,-414.71 267.73,-406.11"/>
<polygon fill="black" stroke="black" points="271.23,-406.1 267.73,-396.1 264.23,-406.1 271.23,-406.1"/>
</g>
<!-- 3 -->
<g id="node3" class="node">
<title>3</title>
<ellipse fill="none" stroke="black" cx="212.73" cy="-306" rx="27" ry="18"/>
<text text-anchor="middle" x="212.73" y="-301.8" font-family="Times,serif" font-size="14.00">3</text>
</g>
<!-- 1&#45;&gt;3 -->
<g id="edge2" class="edge">
<title>1&#45;&gt;3</title>
<path fill="none" stroke="black" d="M255.79,-361.81C248.51,-352.55 239.06,-340.52 230.87,-330.09"/>
<polygon fill="black" stroke="black" points="233.57,-327.86 224.64,-322.16 228.06,-332.18 233.57,-327.86"/>
</g>
<!-- 8 -->
<g id="node4" class="node">
<title>8</title>
<ellipse fill="none" stroke="black" cx="184.73" cy="-162" rx="27" ry="18"/>
<text text-anchor="middle" x="184.73" y="-157.8" font-family="Times,serif" font-size="14.00">8</text>
</g>
<!-- 3&#45;&gt;8 -->
<g id="edge3" class="edge">
<title>3&#45;&gt;8</title>
<path fill="none" stroke="black" d="M209.35,-287.87C204.55,-263.56 195.73,-218.82 190.05,-190.01"/>
<polygon fill="black" stroke="black" points="193.48,-189.32 188.11,-180.19 186.62,-190.68 193.48,-189.32"/>
</g>
<!-- 7 -->
<g id="node5" class="node">
<title>7</title>
<ellipse fill="none" stroke="black" cx="157.73" cy="-234" rx="27" ry="18"/>
<text text-anchor="middle" x="157.73" y="-229.8" font-family="Times,serif" font-size="14.00">7</text>
</g>
<!-- 3&#45;&gt;7 -->
<g id="edge4" class="edge">
<title>3&#45;&gt;7</title>
<path fill="none" stroke="black" d="M200.79,-289.81C193.51,-280.55 184.06,-268.52 175.87,-258.09"/>
<polygon fill="black" stroke="black" points="178.57,-255.86 169.64,-250.16 173.06,-260.18 178.57,-255.86"/>
</g>
<!-- 10 -->
<g id="node11" class="node">
<title>10</title>
<ellipse fill="none" stroke="black" cx="156.73" cy="-18" rx="27" ry="18"/>
<text text-anchor="middle" x="156.73" y="-13.8" font-family="Times,serif" font-size="14.00">10</text>
</g>
<!-- 8&#45;&gt;10 -->
<g id="edge14" class="edge">
<title>8&#45;&gt;10</title>
<path fill="none" stroke="black" d="M181.35,-143.87C176.55,-119.56 167.73,-74.82 162.05,-46.01"/>
<polygon fill="black" stroke="black" points="165.48,-45.32 160.11,-36.19 158.62,-46.68 165.48,-45.32"/>
</g>
<!-- 9 -->
<g id="node12" class="node">
<title>9</title>
<ellipse fill="none" stroke="black" cx="129.73" cy="-90" rx="27" ry="18"/>
<text text-anchor="middle" x="129.73" y="-85.8" font-family="Times,serif" font-size="14.00">9</text>
</g>
<!-- 8&#45;&gt;9 -->
<g id="edge15" class="edge">
<title>8&#45;&gt;9</title>
<path fill="none" stroke="black" d="M172.79,-145.81C165.51,-136.55 156.06,-124.52 147.87,-114.09"/>
<polygon fill="black" stroke="black" points="150.57,-111.86 141.64,-106.16 145.06,-116.18 150.57,-111.86"/>
</g>
<!-- 11 -->
<g id="node13" class="node">
<title>11</title>
<ellipse fill="none" stroke="black" cx="239.73" cy="-90" rx="27" ry="18"/>
<text text-anchor="middle" x="239.73" y="-85.8" font-family="Times,serif" font-size="14.00">11</text>
</g>
<!-- 8&#45;&gt;11 -->
<g id="edge16" class="edge">
<title>8&#45;&gt;11</title>
<path fill="none" stroke="black" d="M196.66,-145.81C203.94,-136.55 213.39,-124.52 221.58,-114.09"/>
<polygon fill="black" stroke="black" points="224.39,-116.18 227.81,-106.16 218.88,-111.86 224.39,-116.18"/>
</g>
<!-- 7&#45;&gt;8 -->
<g id="edge13" class="edge">
<title>7&#45;&gt;8</title>
<path fill="none" stroke="black" d="M164.12,-216.41C167.24,-208.34 171.06,-198.43 174.56,-189.35"/>
<polygon fill="black" stroke="black" points="177.85,-190.55 178.19,-179.96 171.32,-188.03 177.85,-190.55"/>
</g>
<!-- 2 -->
<g id="node6" class="node">
<title>2</title>
<ellipse fill="none" stroke="black" cx="102.73" cy="-450" rx="27" ry="18"/>
<text text-anchor="middle" x="102.73" y="-445.8" font-family="Times,serif" font-size="14.00">2</text>
</g>
<!-- 2&#45;&gt;3 -->
<g id="edge5" class="edge">
<title>2&#45;&gt;3</title>
<path fill="none" stroke="black" d="M126.69,-441.32C147.63,-433.35 177.21,-418.8 193.73,-396 206.72,-378.05 211.18,-353.06 212.56,-334.12"/>
<polygon fill="black" stroke="black" points="216.06,-334.2 213.04,-324.04 209.07,-333.86 216.06,-334.2"/>
</g>
<!-- 6 -->
<g id="node7" class="node">
<title>6</title>
<ellipse fill="none" stroke="black" cx="39.73" cy="-234" rx="27" ry="18"/>
<text text-anchor="middle" x="39.73" y="-229.8" font-family="Times,serif" font-size="14.00">6</text>
</g>
<!-- 2&#45;&gt;6 -->
<g id="edge6" class="edge">
<title>2&#45;&gt;6</title>
<path fill="none" stroke="black" d="M78,-442.23C56.23,-434.82 25.85,-420.57 11.73,-396 -12.98,-353.02 9.09,-293.7 25.59,-260.37"/>
<polygon fill="black" stroke="black" points="28.79,-261.79 30.26,-251.3 22.57,-258.59 28.79,-261.79"/>
</g>
<!-- 5 -->
<g id="node8" class="node">
<title>5</title>
<ellipse fill="none" stroke="black" cx="94.73" cy="-306" rx="27" ry="18"/>
<text text-anchor="middle" x="94.73" y="-301.8" font-family="Times,serif" font-size="14.00">5</text>
</g>
<!-- 2&#45;&gt;5 -->
<g id="edge7" class="edge">
<title>2&#45;&gt;5</title>
<path fill="none" stroke="black" d="M101.76,-431.87C100.4,-407.67 97.89,-363.21 96.27,-334.39"/>
<polygon fill="black" stroke="black" points="99.75,-333.98 95.69,-324.19 92.76,-334.37 99.75,-333.98"/>
</g>
<!-- 4 -->
<g id="node9" class="node">
<title>4</title>
<ellipse fill="none" stroke="black" cx="47.73" cy="-378" rx="27" ry="18"/>
<text text-anchor="middle" x="47.73" y="-373.8" font-family="Times,serif" font-size="14.00">4</text>
</g>
<!-- 2&#45;&gt;4 -->
<g id="edge8" class="edge">
<title>2&#45;&gt;4</title>
<path fill="none" stroke="black" d="M90.79,-433.81C83.51,-424.55 74.06,-412.52 65.87,-402.09"/>
<polygon fill="black" stroke="black" points="68.57,-399.86 59.64,-394.16 63.06,-404.18 68.57,-399.86"/>
</g>
<!-- 12 -->
<g id="node10" class="node">
<title>12</title>
<ellipse fill="none" stroke="black" cx="157.73" cy="-378" rx="27" ry="18"/>
<text text-anchor="middle" x="157.73" y="-373.8" font-family="Times,serif" font-size="14.00">12</text>
</g>
<!-- 2&#45;&gt;12 -->
<g id="edge9" class="edge">
<title>2&#45;&gt;12</title>
<path fill="none" stroke="black" d="M114.66,-433.81C121.94,-424.55 131.39,-412.52 139.58,-402.09"/>
<polygon fill="black" stroke="black" points="142.39,-404.18 145.81,-394.16 136.88,-399.86 142.39,-404.18"/>
</g>
<!-- 5&#45;&gt;7 -->
<g id="edge12" class="edge">
<title>5&#45;&gt;7</title>
<path fill="none" stroke="black" d="M108.09,-290.15C116.61,-280.69 127.81,-268.24 137.42,-257.56"/>
<polygon fill="black" stroke="black" points="140.3,-259.6 144.38,-249.82 135.09,-254.92 140.3,-259.6"/>
</g>
<!-- 5&#45;&gt;6 -->
<g id="edge11" class="edge">
<title>5&#45;&gt;6</title>
<path fill="none" stroke="black" d="M82.79,-289.81C75.51,-280.55 66.06,-268.52 57.87,-258.09"/>
<polygon fill="black" stroke="black" points="60.57,-255.86 51.64,-250.16 55.06,-260.18 60.57,-255.86"/>
</g>
<!-- 4&#45;&gt;5 -->
<g id="edge10" class="edge">
<title>4&#45;&gt;5</title>
<path fill="none" stroke="black" d="M58.39,-361.12C64.28,-352.34 71.72,-341.26 78.33,-331.42"/>
<polygon fill="black" stroke="black" points="81.43,-333.07 84.1,-322.82 75.62,-329.17 81.43,-333.07"/>
</g>
<!-- 9&#45;&gt;10 -->
<g id="edge17" class="edge">
<title>9&#45;&gt;10</title>
<path fill="none" stroke="black" d="M136.12,-72.41C139.24,-64.34 143.06,-54.43 146.56,-45.35"/>
<polygon fill="black" stroke="black" points="149.85,-46.55 150.19,-35.96 143.32,-44.03 149.85,-46.55"/>
</g>
</g>
</svg>
