<svg width="300px" height="476px"
 viewBox="0.00 0.00 300.00 476.00" xmlns="http://www.w3.org/2000/svg" xmlns:xlink="http://www.w3.org/1999/xlink">
<g id="graph0" class="graph" transform="scale(1.0 1.0) rotate(0.0) translate(4.0 472.0)">
<polygon fill="white" stroke="transparent" points="-4,4 -4,-472 296,-472 296,4 -4,4"/>
<!-- 0 -->
<g id="node1" class="node">
<title>0</title>
<ellipse fill="none" stroke="black" cx="83" cy="-450" rx="27" ry="18"/>
<text text-anchor="middle" x="83" y="-445.8" font-family="Times,serif" font-size="14.00">0</text>
</g>
<!-- 6 -->
<g id="node2" class="node">
<title>6</title>
<ellipse fill="none" stroke="black" cx="210" cy="-306" rx="27" ry="18"/>
<text text-anchor="middle" x="210" y="-301.8" font-family="Times,serif" font-size="14.00">6</text>
</g>
<!-- 0&#45;&gt;6 -->
<g id="edge1" class="edge">
<title>0&#45;&gt;6</title>
<path fill="none" stroke="black" d="M108.5,-443.35C133.4,-436.47 170.45,-422.35 191,-396 204.63,-378.53 209.03,-353.49 210.22,-334.41"/>
<polygon fill="black" stroke="black" points="213.72,-334.37 210.59,-324.25 206.73,-334.11 213.72,-334.37"/>
</g>
<!-- 5 -->
<g id="node3" class="node">
<title>5</title>
<ellipse fill="none" stroke="black" cx="27" cy="-234" rx="27" ry="18"/>
<text text-anchor="middle" x="27" y="-229.8" font-family="Times,serif" font-size="14.00">5</text>
</g>
<!-- 0&#45;&gt;5 -->
<g id="edge2" class="edge">
<title>0&#45;&gt;5</title>
<path fill="none" stroke="black" d="M68.3,-434.57C59.02,-424.6 47.57,-410.55 41,-396 21.38,-352.58 21.63,-295.93 24.02,-262.7"/>
<polygon fill="black" stroke="black" points="27.54,-262.64 24.89,-252.38 20.56,-262.05 27.54,-262.64"/>
</g>
<!-- 3 -->
<g id="node4" class="node">
<title>3</title>
<ellipse fill="none" stroke="black" cx="64" cy="-306" rx="27" ry="18"/>
<text text-anchor="middle" x="64" y="-301.8" font-family="Times,serif" font-size="14.00">3</text>
</g>
<!-- 0&#45;&gt;3 -->
<g id="edge3" class="edge">
<title>0&#45;&gt;3</title>
<path fill="none" stroke="black" d="M69.25,-434.07C61.04,-424.1 51.38,-410.25 47,-396 40.59,-375.16 46.1,-350.81 52.51,-332.85"/>
<polygon fill="black" stroke="black" points="55.84,-333.93 56.19,-323.34 49.31,-331.4 55.84,-333.93"/>
</g>
<!-- 2 -->
<g id="node5" class="node">
<title>2</title>
<ellipse fill="none" stroke="black" cx="83" cy="-378" rx="27" ry="18"/>
<text text-anchor="middle" x="83" y="-373.8" font-family="Times,serif" font-size="14.00">2</text>
</g>
<!-- 0&#45;&gt;2 -->
<g id="edge4" class="edge">
<title>0&#45;&gt;2</title>
<path fill="none" stroke="black" d="M83,-431.7C83,-423.98 83,-414.71 83,-406.11"/>
<polygon fill="black" stroke="black" points="86.5,-406.1 83,-396.1 79.5,-406.1 86.5,-406.1"/>
</g>
<!-- 1 -->
<g id="node6" class="node">
<title>1</title>
<ellipse fill="none" stroke="black" cx="155" cy="-378" rx="27" ry="18"/>
<text text-anchor="middle" x="155" y="-373.8" font-family="Times,serif" font-size="14.00">1</text>
</g>
<!-- 0&#45;&gt;1 -->
<g id="edge5" class="edge">
<title>0&#45;&gt;1</title>
<path fill="none" stroke="black" d="M97.57,-434.83C107.75,-424.94 121.52,-411.55 133.03,-400.36"/>
<polygon fill="black" stroke="black" points="135.47,-402.87 140.2,-393.38 130.59,-397.85 135.47,-402.87"/>
</g>
<!-- 4 -->
<g id="node7" class="node">
<title>4</title>
<ellipse fill="none" stroke="black" cx="155" cy="-234" rx="27" ry="18"/>
<text text-anchor="middle" x="155" y="-229.8" font-family="Times,serif" font-size="14.00">4</text>
</g>
<!-- 6&#45;&gt;4 -->
<g id="edge10" class="edge">
<title>6&#45;&gt;4</title>
<path fill="none" stroke="black" d="M198.07,-289.81C190.79,-280.55 181.34,-268.52 173.15,-258.09"/>
<polygon fill="black" stroke="black" points="175.84,-255.86 166.91,-250.16 170.34,-260.18 175.84,-255.86"/>
</g>
<!-- 9 -->
<g id="node8" class="node">
<title>9</title>
<ellipse fill="none" stroke="black" cx="182" cy="-162" rx="27" ry="18"/>
<text text-anchor="middle" x="182" y="-157.8" font-family="Times,serif" font-size="14.00">9</text>
</g>
<!-- 6&#45;&gt;9 -->
<g id="edge9" class="edge">
<title>6&#45;&gt;9</title>
<path fill="none" stroke="black" d="M206.62,-287.87C201.83,-263.56 193.01,-218.82 187.33,-190.01"/>
<polygon fill="black" stroke="black" points="190.76,-189.32 185.39,-180.19 183.89,-190.68 190.76,-189.32"/>
</g>
<!-- 3&#45;&gt;5 -->
<g id="edge7" class="edge">
<title>3&#45;&gt;5</title>
<path fill="none" stroke="black" d="M55.42,-288.76C50.94,-280.28 45.35,-269.71 40.32,-260.2"/>
<polygon fill="black" stroke="black" points="43.3,-258.35 35.54,-251.15 37.11,-261.62 43.3,-258.35"/>
</g>
<!-- 3&#45;&gt;4 -->
<g id="edge8" class="edge">
<title>3&#45;&gt;4</title>
<path fill="none" stroke="black" d="M81.12,-291.83C94.84,-281.27 114.31,-266.3 129.82,-254.37"/>
<polygon fill="black" stroke="black" points="132.17,-256.98 137.96,-248.11 127.9,-251.43 132.17,-256.98"/>
</g>
<!-- 2&#45;&gt;3 -->
<g id="edge6" class="edge">
<title>2&#45;&gt;3</title>
<path fill="none" stroke="black" d="M78.4,-360.05C76.25,-352.14 73.65,-342.54 71.24,-333.69"/>
<polygon fill="black" stroke="black" points="74.55,-332.52 68.56,-323.79 67.8,-334.36 74.55,-332.52"/>
</g>
<!-- 4&#45;&gt;9 -->
<g id="edge11" class="edge">
<title>4&#45;&gt;9</title>
<path fill="none" stroke="black" d="M161.4,-216.41C164.51,-208.34 168.33,-198.43 171.83,-189.35"/>
<polygon fill="black" stroke="black" points="175.13,-190.55 175.46,-179.96 168.6,-188.03 175.13,-190.55"/>
</g>
<!-- 12 -->
<g id="node9" class="node">
<title>12</title>
<ellipse fill="none" stroke="black" cx="154" cy="-18" rx="27" ry="18"/>
<text text-anchor="middle" x="154" y="-13.8" font-family="Times,serif" font-size="14.00">12</text>
</g>
<!-- 9&#45;&gt;12 -->
<g id="edge12" class="edge">
<title>9&#45;&gt;12</title>
<path fill="none" stroke="black" d="M168.25,-146.07C160.04,-136.1 150.38,-122.25 146,-108 139.75,-87.67 142.49,-63.59 146.38,-45.61"/>
<polygon fill="black" stroke="black" points="149.8,-46.34 148.75,-35.8 143,-44.7 149.8,-46.34"/>
</g>
<!-- 11 -->
<g id="node10" class="node">
<title>11</title>
<ellipse fill="none" stroke="black" cx="182" cy="-90" rx="27" ry="18"/>
<text text-anchor="middle" x="182" y="-85.8" font-family="Times,serif" font-size="14.00">11</text>
</g>
<!-- 9&#45;&gt;11 -->
<g id="edge13" class="edge">
<title>9&#45;&gt;11</title>
<path fill="none" stroke="black" d="M182,-143.7C182,-135.98 182,-126.71 182,-118.11"/>
<polygon fill="black" stroke="black" points="185.5,-118.1 182,-108.1 178.5,-118.1 185.5,-118.1"/>
</g>
<!-- 10 -->
<g id="node11" class="node">
<title>10</title>
<ellipse fill="none" stroke="black" cx="254" cy="-90" rx="27" ry="18"/>
<text text-anchor="middle" x="254" y="-85.8" font-family="Times,serif" font-size="14.00">10</text>
</g>
<!-- 9&#45;&gt;10 -->
<g id="edge14" class="edge">
<title>9&#45;&gt;10</title>
<path fill="none" stroke="black" d="M196.57,-146.83C206.75,-136.94 220.52,-123.55 232.03,-112.36"/>
<polygon fill="black" stroke="black" points="234.47,-114.87 239.2,-105.38 229.59,-109.85 234.47,-114.87"/>
</g>
<!-- 11&#45;&gt;12 -->
<g id="edge17" class="edge">
<title>11&#45;&gt;12</title>
<path fill="none" stroke="black" d="M175.36,-72.41C172.09,-64.22 168.06,-54.14 164.38,-44.95"/>
<polygon fill="black" stroke="black" points="167.55,-43.45 160.59,-35.47 161.05,-46.05 167.55,-43.45"/>
</g>
<!-- 7 -->
<g id="node12" class="node">
<title>7</title>
<ellipse fill="none" stroke="black" cx="265" cy="-378" rx="27" ry="18"/>
<text text-anchor="middle" x="265" y="-373.8" font-family="Times,serif" font-size="14.00">7</text>
</g>
<!-- 7&#45;&gt;6 -->
<g id="edge15" class="edge">
<title>7&#45;&gt;6</title>
<path fill="none" stroke="black" d="M253.07,-361.81C245.79,-352.55 236.34,-340.52 228.15,-330.09"/>
<polygon fill="black" stroke="black" points="230.84,-327.86 221.91,-322.16 225.34,-332.18 230.84,-327.86"/>
</g>
<!-- 8 -->
<g id="node13" class="node">
<title>8</title>
<ellipse fill="none" stroke="black" cx="265" cy="-450" rx="27" ry="18"/>
<text text-anchor="middle" x="265" y="-445.8" font-family="Times,serif" font-size="14.00">8</text>
</g>
<!-- 8&#45;&gt;7 -->
<g id="edge16" class="edge">
<title>8&#45;&gt;7</title>
<path fill="none" stroke="black" d="M265,-431.7C265,-423.98 265,-414.71 265,-406.11"/>
<polygon fill="black" stroke="black" points="268.5,-406.1 265,-396.1 261.5,-406.1 268.5,-406.1"/>
</g>
</g>
</svg>
